<svg width="72" height="80" viewBox="0 0 72 80" fill="none" xmlns="http://www.w3.org/2000/svg">
<path d="M51.1929 31.0838C37.3825 27.7534 48.7036 6.68649 29.7815 8.43245C10.8595 10.1784 -7.08352 58.1038 26.509 69.3257C60.1015 80.5475 77.4152 37.4061 51.1929 31.0838Z" fill="#464BD8"/>
<path d="M37.7252 64.8877C37.6273 64.8877 37.5224 64.8646 37.4315 64.8108L23.0826 56.5425C23.0095 56.5007 22.9446 56.4435 22.8916 56.374C22.8387 56.3046 22.7987 56.2243 22.774 56.1379C22.7493 56.0514 22.7404 55.9604 22.7478 55.8701C22.7551 55.7799 22.7786 55.6921 22.8169 55.6118L36.9909 25.8382C37.0441 25.7259 37.1245 25.6319 37.2233 25.5668C37.322 25.5016 37.4352 25.4678 37.5503 25.469C37.6482 25.469 37.7531 25.4921 37.844 25.5459L52.1929 33.8142C52.5006 33.9912 52.6194 34.4065 52.4586 34.7449L38.2776 64.5185C38.2249 64.6297 38.1456 64.7229 38.0482 64.788C37.9508 64.853 37.8391 64.8875 37.7252 64.8877Z" fill="#514DDF"/>
<path d="M37.5503 26.1612L51.8992 34.4295L37.7252 64.1954L23.3763 55.9348L37.5503 26.1612ZM37.5503 24.7844C37.4245 24.7844 37.2986 24.8075 37.1797 24.846C36.8651 24.9536 36.5993 25.1998 36.4455 25.5228L22.2645 55.2964C22.1879 55.4569 22.1409 55.6325 22.1262 55.813C22.1115 55.9936 22.1294 56.1755 22.1787 56.3485C22.2281 56.5214 22.3081 56.6819 22.414 56.8208C22.5199 56.9597 22.6497 57.0742 22.7959 57.1577L37.1448 65.426C37.3266 65.5337 37.5224 65.5799 37.7252 65.5799C37.851 65.5799 37.9769 65.5568 38.0958 65.5183C38.4104 65.4107 38.6761 65.1645 38.83 64.8415L53.011 35.0602C53.1638 34.7368 53.1936 34.36 53.094 34.0124C52.9943 33.6649 52.7734 33.375 52.4796 33.2066L38.1307 24.9383C37.9559 24.8383 37.7531 24.7844 37.5503 24.7844Z" fill="#151B28"/>
<path d="M37.6482 64.6339C37.5783 64.6339 37.5084 64.6185 37.4454 64.5954L19.6842 57.9039C19.6061 57.8746 19.5341 57.8287 19.4722 57.7688C19.4102 57.7088 19.3596 57.6361 19.3233 57.5547C19.2869 57.4733 19.2655 57.3847 19.2602 57.2942C19.255 57.2037 19.266 57.1129 19.2926 57.027L30.7675 20.1696C30.8584 19.885 31.0962 19.7004 31.3619 19.7004C31.4318 19.7004 31.4947 19.7158 31.5647 19.7389L49.3259 26.4305C49.4797 26.492 49.6126 26.6151 49.6825 26.7766C49.7524 26.9381 49.7664 27.1304 49.7105 27.2996L38.2426 64.1647C38.1867 64.3339 38.0748 64.4801 37.9279 64.557C37.837 64.6108 37.7461 64.6339 37.6482 64.6339Z" fill="white"/>
<path d="M31.3689 20.4003L49.1301 27.0919L37.6482 63.9416L19.887 57.2501L31.3689 20.4003ZM31.3689 19.0236C31.1801 19.0236 30.9913 19.0697 30.8164 19.162C30.5179 19.3238 30.2893 19.6084 30.1801 19.9542L18.7052 56.804C18.4815 57.527 18.8311 58.3038 19.4814 58.5499L37.2427 65.2415C37.3755 65.2876 37.5084 65.3184 37.6482 65.3184C37.837 65.3184 38.0258 65.2722 38.2006 65.1799C38.5013 65.0184 38.7251 64.7338 38.837 64.3877L50.3119 27.5303C50.5356 26.8073 50.186 26.0305 49.5357 25.7843L31.7744 19.0928C31.6416 19.0466 31.5017 19.0236 31.3689 19.0236Z" fill="#151B28"/>
<path d="M31.3689 25.2152C30.8864 25.2152 30.4109 25.1306 29.9494 24.9537C29.7955 24.8922 29.6627 24.7691 29.5927 24.6076C29.5228 24.4461 29.5088 24.2538 29.5648 24.0846L30.7815 20.1773C30.8724 19.8927 31.1101 19.7081 31.3759 19.7081C31.4458 19.7081 31.5087 19.7235 31.5787 19.7466L35.1309 21.0849C35.2847 21.1464 35.4176 21.2695 35.4875 21.431C35.5574 21.5925 35.5714 21.7848 35.5155 21.954C35.2184 22.9044 34.6594 23.7292 33.9161 24.3137C33.1729 24.8982 32.2825 25.2134 31.3689 25.2152Z" fill="white"/>
<path d="M31.3689 20.4003L34.9211 21.7386C34.6664 22.5525 34.1874 23.2587 33.5507 23.7591C32.914 24.2595 32.1514 24.5292 31.3689 24.5306C30.9633 24.5306 30.5577 24.4614 30.1522 24.3076L31.3689 20.4003ZM31.3689 19.0236C30.8514 19.0236 30.3619 19.3851 30.1871 19.9542L28.9704 23.8615C28.8655 24.2076 28.8865 24.5845 29.0333 24.9152C29.1802 25.2459 29.4389 25.4921 29.7536 25.6151C30.278 25.8151 30.8234 25.9151 31.3759 25.9151C32.4192 25.9145 33.4363 25.5554 34.2851 24.888C35.1338 24.2205 35.7718 23.2781 36.1099 22.1924C36.2148 21.8463 36.1938 21.4694 36.0469 21.1387C35.8998 20.8103 35.6411 20.5589 35.3267 20.4388L31.7744 19.1005C31.6346 19.0466 31.5017 19.0236 31.3689 19.0236Z" fill="#151B28"/>
<path d="M47.9064 31.6837C47.8365 31.6837 47.7666 31.6684 47.7036 31.6453C46.6046 31.2301 45.7002 30.3523 45.1889 29.2045C44.6776 28.0566 44.6012 26.7326 44.9765 25.5229C45.0674 25.2383 45.3052 25.0537 45.5709 25.0537C45.6408 25.0537 45.7037 25.0691 45.7737 25.0922L49.3259 26.4305C49.6546 26.5535 49.8294 26.9458 49.7175 27.3073L48.5008 31.2146C48.4448 31.3838 48.3329 31.5299 48.1861 31.6068C48.0952 31.6607 48.0043 31.6837 47.9064 31.6837Z" fill="white"/>
<path d="M45.5709 25.7536L49.1231 27.0919L47.9064 30.9992C46.9655 30.6425 46.1914 29.8902 45.7536 28.907C45.3159 27.9238 45.2502 26.7899 45.5709 25.7536ZM45.5709 24.3768C45.3821 24.3768 45.1933 24.423 45.0185 24.5153C44.7199 24.6771 44.4913 24.9617 44.3821 25.3075C43.4871 28.1764 44.8856 31.3145 47.4938 32.299C47.6267 32.3529 47.7665 32.3759 47.8994 32.3759C48.4169 32.3759 48.9063 32.0144 49.0812 31.4453L50.2979 27.538C50.4028 27.1919 50.3818 26.815 50.2349 26.4843C50.0879 26.1559 49.8291 25.9044 49.5147 25.7844L45.9764 24.4461C45.8506 24.3999 45.7107 24.3768 45.5709 24.3768Z" fill="#151B28"/>
<path d="M23.4462 59.2806C23.3763 59.2806 23.3064 59.2652 23.2434 59.2422L19.6912 57.9039C19.5374 57.8423 19.4045 57.7193 19.3346 57.5577C19.2646 57.3962 19.2507 57.2039 19.3066 57.0347L20.5233 53.1275C20.5793 52.9583 20.6911 52.8121 20.838 52.7352C20.9865 52.656 21.1575 52.6449 21.3135 52.7044C22.4125 53.1196 23.3169 53.9974 23.8282 55.1452C24.3395 56.2931 24.4159 57.6171 24.0406 58.8268C23.9847 58.996 23.8728 59.1422 23.7259 59.2191C23.635 59.2576 23.5371 59.2806 23.4462 59.2806Z" fill="white"/>
<path d="M21.1107 53.3505C23.0756 54.0889 24.1175 56.4348 23.4462 58.5961L19.894 57.2578L21.1107 53.3505ZM21.1107 51.9738C20.9219 51.9738 20.7331 52.0199 20.5583 52.1122C20.2597 52.274 20.0311 52.5586 19.922 52.9044L18.7052 56.8117C18.4815 57.5347 18.8311 58.3115 19.4814 58.5576L23.0337 59.8959C23.1665 59.9421 23.2994 59.9729 23.4392 59.9729C23.628 59.9729 23.8168 59.9267 23.9917 59.8344C24.2923 59.6729 24.5161 59.3883 24.628 59.0422C25.0615 57.65 24.9776 56.1579 24.3902 54.835C23.8029 53.512 22.7819 52.5275 21.5163 52.0507C21.3834 51.9968 21.2436 51.9738 21.1107 51.9738Z" fill="#151B28"/>
<path d="M37.6482 64.6339C37.5783 64.6339 37.5154 64.6185 37.4455 64.5954L33.8932 63.2571C33.7394 63.1956 33.6065 63.0725 33.5366 62.911C33.4667 62.7495 33.4527 62.5572 33.5086 62.388C33.8046 61.4384 34.3624 60.6139 35.1044 60.0294C35.8464 59.4449 36.7356 59.1294 37.6482 59.1268C38.1307 59.1268 38.6132 59.2114 39.0747 59.3883C39.2286 59.4499 39.3614 59.5729 39.4314 59.7345C39.5013 59.896 39.5153 60.0883 39.4593 60.2575L38.2426 64.1647C38.2003 64.3012 38.1202 64.4198 38.0137 64.5039C37.9071 64.588 37.7794 64.6335 37.6482 64.6339Z" fill="white"/>
<path d="M37.6482 59.8113C38.0538 59.8113 38.4664 59.8806 38.8719 60.0344L37.6552 63.9416L34.103 62.6033C34.355 61.7891 34.8323 61.0821 35.4681 60.5814C36.1039 60.0806 36.8663 59.8114 37.6482 59.8113ZM37.6482 58.4346C36.6049 58.4352 35.5878 58.7943 34.739 59.4617C33.8903 60.1291 33.2523 61.0715 32.9142 62.1572C32.6905 62.8802 33.0401 63.6571 33.6904 63.9032L37.2427 65.2415C37.3755 65.2877 37.5084 65.3184 37.6482 65.3184C37.837 65.3184 38.0258 65.2723 38.2006 65.18C38.5013 65.0184 38.7251 64.7339 38.837 64.3877L40.0537 60.4805C40.2775 59.7575 39.9278 58.9807 39.2775 58.7345C38.7461 58.5346 38.2006 58.4346 37.6482 58.4346Z" fill="#151B28"/>
<path d="M34.5155 53.6274C33.3688 53.6274 32.236 53.4198 31.1381 53.0044C31.0682 52.9737 30.9843 52.9506 30.9004 52.9044C28.8653 52.0812 27.1155 50.5779 25.8965 48.6053C24.6776 46.6328 24.0506 44.29 24.1035 41.9057C24.1035 41.8441 24.1175 41.7749 24.1315 41.7211L26.0615 35.5218C26.0825 35.4602 26.1104 35.4064 26.1454 35.3525C28.0963 32.4452 31.229 30.7146 34.5155 30.7146C35.6623 30.7146 36.7951 30.9223 37.886 31.3376C41.4872 32.6913 44.1234 36.0986 44.7667 40.2212C44.8856 40.9519 44.9415 41.698 44.9276 42.4364C44.9276 42.4979 44.9136 42.5594 44.8996 42.621L42.9696 48.8203C42.9486 48.8818 42.9207 48.9356 42.8857 48.9895C40.9278 51.8892 37.8021 53.6274 34.5155 53.6274Z" fill="white"/>
<path d="M34.5086 31.3376C35.5644 31.3376 36.6413 31.5299 37.6972 31.9221C41.2145 33.245 43.6129 36.5447 44.2003 40.3212C44.3122 41.0057 44.3681 41.7133 44.3542 42.4133L42.4242 48.6126C41.5081 49.9717 40.316 51.0765 38.9429 51.839C37.5698 52.6015 36.0537 53.0006 34.5155 53.0044C33.4597 53.0044 32.3828 52.8121 31.3199 52.4198C31.25 52.3968 31.1801 52.366 31.1101 52.3275C31.1032 52.3275 31.0962 52.3198 31.0962 52.3198C27.0614 50.6816 24.572 46.4282 24.6699 41.921L26.5999 35.7217C28.446 32.9682 31.4038 31.3376 34.5086 31.3376ZM34.5086 30.0839C31.0402 30.0839 27.7397 31.9144 25.6769 34.9756C25.607 35.0756 25.551 35.191 25.5161 35.314L23.5861 41.5134C23.5511 41.6364 23.5301 41.7595 23.5232 41.8902C23.4696 44.4011 24.1302 46.8676 25.4126 48.9456C26.6951 51.0235 28.5353 52.6092 30.6766 53.4812L30.9423 53.5966C32.0961 54.035 33.2918 54.2504 34.5016 54.2504C37.9699 54.2504 41.2634 52.4198 43.3262 49.3586C43.3962 49.2586 43.4521 49.1433 43.4871 49.0202L45.417 42.8209C45.452 42.6978 45.473 42.5748 45.48 42.444C45.5009 41.6672 45.438 40.875 45.3121 40.0981C44.9782 37.9647 44.1279 35.9695 42.8507 34.3224C41.5735 32.6753 39.9165 31.437 38.0538 30.7376C36.914 30.3069 35.7183 30.0839 34.5086 30.0839Z" fill="#151B28"/>
<path d="M44.3541 42.4133L42.4242 48.6126C39.9418 52.3045 35.4875 53.9813 31.3199 52.4122C31.25 52.3891 31.1801 52.3584 31.1101 52.3199C31.1031 52.3199 31.0962 52.3122 31.0962 52.3122C28.0823 49.874 26.6978 45.4745 27.9774 41.375C29.5508 36.3217 34.5505 33.6297 39.1377 35.3526C40.2399 35.7655 41.256 36.4164 42.1266 37.2669C42.9971 38.1175 43.7045 39.1507 44.2073 40.3059C44.319 41.0014 44.3682 41.7072 44.3541 42.4133Z" fill="#2AEFC8"/>
<path d="M31.9213 38.5906C31.1521 39.0059 30.6626 39.4136 30.3619 40.3827C30.0263 41.4672 30.4528 42.4209 31.3759 42.767C33.7603 43.6669 34.5715 38.5521 37.9769 39.8366C39.4663 40.3981 40.1516 41.8133 39.8439 43.5054L41.4033 44.09L41.1096 45.0283L39.5642 44.4438C39.1167 45.5206 38.2706 46.4205 37.4454 46.905L36.8441 46.0051C37.6412 45.5129 38.3894 44.813 38.7251 43.7285C39.1377 42.3978 38.6901 41.4749 37.6692 41.0903C35.005 40.0827 34.124 45.1745 31.0332 44.0054C29.6557 43.49 28.9774 42.0902 29.2361 40.5519L27.6768 39.9673L27.9705 39.029L29.5158 39.6135C29.9564 38.5521 30.6556 38.0214 31.4318 37.6445L31.9213 38.5906Z" fill="black"/>
</svg>
